<!-- Generated by IcoMoon.io -->
<svg version="1.1" xmlns="http://www.w3.org/2000/svg" width="32" height="32" viewBox="0 0 32 32">
<title>Ellipse-3</title>
<path fill="#fff" opacity="0.1" d="M32 16c0 4.418-1.791 8.418-4.686 11.314s-6.895 4.686-11.314 4.686c-4.418 0-8.418-1.791-11.314-4.686s-4.686-6.895-4.686-11.314c0-4.418 1.791-8.418 4.686-11.314s6.895-4.686 11.314-4.686c4.418 0 8.418 1.791 11.314 4.686s4.686 6.895 4.686 11.314z"></path>
<path fill="#f4f4fd" d="M25.595 25.6v-0.001h0.005v-7.042c0-3.445-0.742-6.098-4.769-6.098-1.936 0-3.235 1.062-3.766 2.070h-0.056v-1.748h-3.818v12.818h3.976v-6.347c0-1.671 0.317-3.287 2.386-3.287 2.039 0 2.070 1.907 2.070 3.394v6.241h3.972z"></path>
<path fill="#f4f4fd" d="M6.717 12.782h3.981v12.818h-3.981v-12.818z"></path>
<path fill="#f4f4fd" d="M8.706 6.4c-1.273 0-2.306 1.033-2.306 2.306s1.033 2.327 2.306 2.327c1.273 0 2.306-1.054 2.306-2.327s-1.034-2.306-2.306-2.306v0z"></path>
</svg>
