<!-- Generated by IcoMoon.io -->
<svg version="1.1" xmlns="http://www.w3.org/2000/svg" width="32" height="32" viewBox="0 0 32 32">
<title>Ellipse</title>
<path fill="#fff" opacity="0.1" d="M32 16c0 4.418-1.791 8.418-4.686 11.314s-6.895 4.686-11.314 4.686c-4.418 0-8.418-1.791-11.314-4.686s-4.686-6.895-4.686-11.314c0-4.418 1.791-8.418 4.686-11.314s6.895-4.686 11.314-4.686c4.418 0 8.418 1.791 11.314 4.686s4.686 6.895 4.686 11.314z"></path>
<path fill="#f4f4fd" d="M25.581 12.045c-0.045-1.020-0.21-1.722-0.446-2.329-0.244-0.645-0.619-1.223-1.11-1.703-0.48-0.488-1.061-0.866-1.699-1.106-0.611-0.236-1.309-0.401-2.329-0.446-1.028-0.049-1.354-0.060-3.961-0.060s-2.933 0.011-3.957 0.056c-1.020 0.045-1.722 0.21-2.329 0.446-0.645 0.244-1.223 0.619-1.703 1.11-0.488 0.48-0.866 1.062-1.106 1.699-0.236 0.611-0.401 1.309-0.446 2.329-0.049 1.028-0.060 1.354-0.060 3.961s0.011 2.933 0.056 3.957c0.045 1.020 0.21 1.722 0.446 2.329 0.244 0.645 0.623 1.223 1.11 1.703 0.48 0.488 1.061 0.866 1.699 1.106 0.611 0.236 1.309 0.401 2.329 0.446 1.024 0.045 1.35 0.056 3.957 0.056s2.933-0.011 3.957-0.056c1.020-0.045 1.722-0.21 2.329-0.446 1.29-0.499 2.31-1.519 2.809-2.809 0.236-0.611 0.401-1.309 0.446-2.329 0.045-1.024 0.056-1.35 0.056-3.957s-0.004-2.933-0.049-3.957zM23.852 19.884c-0.041 0.938-0.199 1.444-0.33 1.782-0.323 0.836-0.986 1.5-1.823 1.823-0.338 0.131-0.848 0.289-1.782 0.33-1.013 0.045-1.316 0.056-3.878 0.056s-2.869-0.011-3.878-0.056c-0.938-0.041-1.444-0.199-1.782-0.33-0.416-0.154-0.795-0.398-1.103-0.716-0.319-0.311-0.563-0.686-0.716-1.103-0.131-0.338-0.289-0.848-0.33-1.782-0.045-1.013-0.056-1.317-0.056-3.878s0.011-2.869 0.056-3.878c0.041-0.938 0.199-1.444 0.33-1.782 0.154-0.416 0.398-0.795 0.72-1.103 0.311-0.319 0.686-0.563 1.103-0.716 0.338-0.131 0.848-0.289 1.782-0.33 1.013-0.045 1.317-0.056 3.878-0.056 2.566 0 2.869 0.011 3.878 0.056 0.938 0.041 1.444 0.199 1.782 0.33 0.416 0.154 0.795 0.397 1.103 0.716 0.319 0.311 0.563 0.686 0.716 1.103 0.131 0.338 0.289 0.848 0.33 1.782 0.045 1.013 0.056 1.316 0.056 3.878s-0.011 2.862-0.056 3.875z"></path>
<path fill="#f4f4fd" d="M16.036 11.070c-2.723 0-4.932 2.209-4.932 4.932s2.209 4.932 4.932 4.932c2.723 0 4.932-2.209 4.932-4.932s-2.209-4.932-4.932-4.932zM16.036 19.201c-1.766 0-3.199-1.433-3.199-3.199s1.433-3.199 3.199-3.199c1.767 0 3.199 1.433 3.199 3.199s-1.433 3.199-3.199 3.199v0z"></path>
<path fill="#f4f4fd" d="M22.314 10.875c0 0.636-0.516 1.151-1.152 1.151s-1.151-0.516-1.151-1.151c0-0.636 0.516-1.151 1.151-1.151s1.152 0.515 1.152 1.151v0z"></path>
</svg>
