<!-- Generated by IcoMoon.io -->
<svg version="1.1" xmlns="http://www.w3.org/2000/svg" width="32" height="32" viewBox="0 0 32 32">
<title>Ellipse-5</title>
<path fill="#4d5ae5" d="M32 16c0 4.418-1.791 8.418-4.686 11.314s-6.895 4.686-11.314 4.686c-4.418 0-8.418-1.791-11.314-4.686s-4.686-6.895-4.686-11.314c0-4.418 1.791-8.418 4.686-11.314s6.895-4.686 11.314-4.686c4.418 0 8.418 1.791 11.314 4.686s4.686 6.895 4.686 11.314z"></path>
<path fill="#f4f4fd" d="M22.4 12.031c-0.476 0.209-0.983 0.347-1.512 0.414 0.544-0.325 0.959-0.835 1.154-1.45-0.507 0.302-1.067 0.516-1.664 0.635-0.482-0.513-1.168-0.83-1.917-0.83-1.453 0-2.622 1.179-2.622 2.625 0 0.208 0.018 0.408 0.061 0.598-2.182-0.106-4.112-1.152-5.409-2.745-0.226 0.393-0.359 0.842-0.359 1.326 0 0.909 0.468 1.714 1.166 2.181-0.422-0.008-0.835-0.13-1.186-0.323 0 0.008 0 0.018 0 0.029 0 1.275 0.91 2.334 2.102 2.578-0.214 0.058-0.446 0.086-0.688 0.086-0.168 0-0.338-0.010-0.497-0.045 0.34 1.039 1.305 1.803 2.452 1.828-0.893 0.698-2.026 1.119-3.254 1.119-0.215 0-0.422-0.010-0.628-0.036 1.162 0.75 2.54 1.178 4.026 1.178 4.829 0 7.469-4 7.469-7.467 0-0.116-0.004-0.228-0.010-0.339 0.521-0.37 0.958-0.831 1.315-1.362z"></path>
</svg>
