<!-- Generated by IcoMoon.io -->
<svg version="1.1" xmlns="http://www.w3.org/2000/svg" width="32" height="32" viewBox="0 0 32 32">
<title>Ellipse-1</title>
<path fill="#fff" opacity="0.1" d="M32 16c0 4.418-1.791 8.418-4.686 11.314s-6.895 4.686-11.314 4.686c-4.418 0-8.418-1.791-11.314-4.686s-4.686-6.895-4.686-11.314c0-4.418 1.791-8.418 4.686-11.314s6.895-4.686 11.314-4.686c4.418 0 8.418 1.791 11.314 4.686s4.686 6.895 4.686 11.314z"></path>
<path fill="#f4f4fd" d="M25.6 10.047c-0.714 0.313-1.475 0.521-2.268 0.622 0.816-0.487 1.439-1.253 1.732-2.176-0.761 0.454-1.601 0.774-2.496 0.953-0.722-0.769-1.752-1.246-2.875-1.246-2.179 0-3.934 1.769-3.934 3.937 0 0.312 0.026 0.612 0.091 0.898-3.272-0.16-6.168-1.728-8.113-4.117-0.34 0.589-0.539 1.264-0.539 1.99 0 1.363 0.702 2.572 1.748 3.271-0.632-0.012-1.253-0.196-1.778-0.485 0 0.012 0 0.028 0 0.043 0 1.913 1.364 3.502 3.154 3.868-0.32 0.088-0.67 0.13-1.032 0.13-0.252 0-0.506-0.014-0.745-0.067 0.51 1.559 1.957 2.705 3.678 2.742-1.339 1.048-3.040 1.679-4.88 1.679-0.323 0-0.632-0.014-0.942-0.054 1.744 1.124 3.81 1.766 6.038 1.766 7.243 0 11.203-6 11.203-11.201 0-0.174-0.006-0.342-0.014-0.509 0.781-0.554 1.438-1.247 1.973-2.044z"></path>
</svg>
