<!-- Generated by IcoMoon.io -->
<svg version="1.1" xmlns="http://www.w3.org/2000/svg" width="32" height="32" viewBox="0 0 32 32">
<title>Ellipse-4</title>
<path fill="#4d5ae5" d="M32 16c0 4.418-1.791 8.418-4.686 11.314s-6.895 4.686-11.314 4.686c-4.418 0-8.418-1.791-11.314-4.686s-4.686-6.895-4.686-11.314c0-4.418 1.791-8.418 4.686-11.314s6.895-4.686 11.314-4.686c4.418 0 8.418 1.791 11.314 4.686s4.686 6.895 4.686 11.314z"></path>
<path fill="#f4f4fd" d="M22.387 13.363c-0.030-0.68-0.14-1.148-0.298-1.553-0.163-0.43-0.413-0.815-0.74-1.135-0.32-0.325-0.708-0.578-1.133-0.738-0.408-0.158-0.873-0.268-1.553-0.298-0.685-0.032-0.903-0.040-2.641-0.040s-1.955 0.008-2.638 0.038c-0.68 0.030-1.148 0.14-1.553 0.298-0.43 0.162-0.815 0.413-1.135 0.74-0.325 0.32-0.578 0.708-0.738 1.133-0.158 0.408-0.268 0.873-0.298 1.553-0.032 0.685-0.040 0.903-0.040 2.641s0.008 1.955 0.038 2.638c0.030 0.68 0.14 1.148 0.298 1.553 0.162 0.43 0.415 0.815 0.74 1.135 0.32 0.325 0.708 0.578 1.133 0.738 0.408 0.158 0.873 0.268 1.553 0.298 0.683 0.030 0.9 0.038 2.638 0.038s1.955-0.007 2.638-0.038c0.68-0.030 1.148-0.14 1.553-0.298 0.86-0.333 1.54-1.013 1.873-1.873 0.157-0.408 0.268-0.873 0.298-1.553 0.030-0.683 0.038-0.9 0.038-2.638s-0.003-1.955-0.033-2.638zM21.235 18.589c-0.028 0.625-0.133 0.963-0.22 1.188-0.215 0.558-0.658 1-1.215 1.215-0.225 0.088-0.565 0.193-1.188 0.22-0.675 0.030-0.878 0.037-2.585 0.037s-1.913-0.007-2.586-0.037c-0.625-0.027-0.963-0.132-1.188-0.22-0.278-0.103-0.53-0.265-0.735-0.478-0.213-0.208-0.375-0.458-0.478-0.735-0.088-0.225-0.193-0.565-0.22-1.188-0.030-0.675-0.038-0.878-0.038-2.586s0.007-1.913 0.038-2.586c0.027-0.625 0.132-0.963 0.22-1.188 0.103-0.278 0.265-0.53 0.48-0.735 0.207-0.213 0.458-0.375 0.735-0.478 0.225-0.087 0.565-0.192 1.188-0.22 0.675-0.030 0.878-0.038 2.586-0.038 1.71 0 1.913 0.008 2.586 0.038 0.625 0.028 0.963 0.133 1.188 0.22 0.277 0.102 0.53 0.265 0.735 0.478 0.212 0.208 0.375 0.458 0.478 0.735 0.088 0.225 0.192 0.565 0.22 1.188 0.030 0.675 0.038 0.878 0.038 2.586s-0.008 1.908-0.038 2.583z"></path>
<path fill="#f4f4fd" d="M16.024 12.713c-1.815 0-3.288 1.473-3.288 3.288s1.473 3.288 3.288 3.288c1.815 0 3.288-1.473 3.288-3.288s-1.473-3.288-3.288-3.288zM16.024 18.134c-1.178 0-2.133-0.955-2.133-2.133s0.955-2.133 2.133-2.133c1.178 0 2.133 0.955 2.133 2.133s-0.955 2.133-2.133 2.133z"></path>
<path fill="#f4f4fd" d="M20.21 12.583c0 0.424-0.344 0.768-0.768 0.768s-0.768-0.344-0.768-0.768c0-0.424 0.344-0.768 0.768-0.768s0.768 0.344 0.768 0.768z"></path>
</svg>
