<!-- Generated by IcoMoon.io -->
<svg version="1.1" xmlns="http://www.w3.org/2000/svg" width="32" height="32" viewBox="0 0 32 32">
<title>Ellipse-6</title>
<path fill="#4d5ae5" d="M32 16c0 4.418-1.791 8.418-4.686 11.314s-6.895 4.686-11.314 4.686c-4.418 0-8.418-1.791-11.314-4.686s-4.686-6.895-4.686-11.314c0-4.418 1.791-8.418 4.686-11.314s6.895-4.686 11.314-4.686c4.418 0 8.418 1.791 11.314 4.686s4.686 6.895 4.686 11.314z"></path>
<path fill="#f4f4fd" d="M18.132 11.725h1.169v-2.035c-0.202-0.028-0.895-0.090-1.702-0.090-1.685 0-2.839 1.060-2.839 3.007v1.793h-1.859v2.275h1.859v5.725h2.28v-5.724h1.784l0.283-2.275h-2.068v-1.567c0.001-0.658 0.178-1.108 1.094-1.108z"></path>
</svg>
